# xmcd
#
# Track frame offsets: 
#        150
#        22850
#        38942
#        62700
#        80140
#        96012
#        113257
#        129075
#        146607
#        160965
#
# Disc length: 2435 seconds
#
# Revision: 3
# Processed by: cddbd v1.5.2PL0 Copyright (c) Steve Scherf et al.
# Submitted via: ExactAudioCopy v0.99pb1
#
DISCID=7509810a
DTITLE=Koko Taylor - Queen of The Blues
DYEAR=1900
DGENRE=Blues
TTITLE0=Evil
TTITLE1=Beer Bottle Boogie
TTITLE2=I Cried Like A Baby
TTITLE3=I Can Love You Like A Woman (Or I Can Fight You Like A Man)
TTITLE4=Flamin' Mamie
TTITLE5=Something Inside Me
TTITLE6=The Hunter
TTITLE7=Queen Bee
TTITLE8=I Don't Care No More
TTITLE9=Come To Mama
EXTD=
EXTT0=
EXTT1=
EXTT2=
EXTT3=
EXTT4=
EXTT5=
EXTT6=
EXTT7=
EXTT8=
EXTT9=
PLAYORDER=
